# xmcd CD database file
#
# Track frame offsets:
#	150
#	22012
#	42740
#	59367
#	78797
#	101260
#	125710
#	144875
#	167090
#	188415
#	204042
#	226545
#
# Disc length: 3284 seconds
#
# Revision: 0
# Processed by: cddbd v1.5.1PL0 Copyright (c) Steve Scherf et al.
# Submitted via: CDex 1.51
#
DISCID=8d0cd20c
DTITLE=Chris Babida 鲍比达 - Café, Ballads 情歌玛奇朵
DYEAR=2004
DGENRE=Jazz
TTITLE0=Everlasting Love 新不了情
TTITLE1=Winter 大约在冬季
TTITLE2=Past Love 当爱已成往事
TTITLE3=Bad Boy 坏男孩
TTITLE4=First Love 爱的初体验
TTITLE5=Yeliya 耶利亚女郎
TTITLE6=Tides of Love 爱如潮水
TTITLE7=Last Night 最后一夜
TTITLE8=Friend of Love 不只是朋友
TTITLE9=Prodigal Love Song 浪人情歌
TTITLE10=Love Trap 情网
TTITLE11=Leave The Sadness Behind 把悲伤留给自己
EXTD=YEAR: 2004
EXTT0=
EXTT1=
EXTT2=
EXTT3=
EXTT4=
EXTT5=
EXTT6=
EXTT7=
EXTT8=
EXTT9=
EXTT10=
EXTT11=
PLAYORDER=
